<?xml version="1.0" encoding="UTF-8"?>
<svg version="1.1" xmlns="http://www.w3.org/2000/svg" width="192" height="192">
<path d="M0 0 C2.18341574 0.00851187 4.36420341 -0.02037972 6.54736328 -0.05200195 C26.18907418 -0.14916493 47.20012874 6.5397496 62.31689453 19.44604492 C62.31689453 20.10604492 62.31689453 20.76604492 62.31689453 21.44604492 C62.87376953 21.69354492 63.43064453 21.94104492 64.00439453 22.19604492 C69.42644607 25.12688359 73.74113862 29.45718959 77.31689453 34.44604492 C77.31689453 35.10604492 77.31689453 35.76604492 77.31689453 36.44604492 C78.30689453 36.77604492 79.29689453 37.10604492 80.31689453 37.44604492 C93.58704777 53.0951612 98.88137955 74.11053967 98.76293945 94.12915039 C98.75442759 96.31256613 98.78331917 98.4933538 98.81494141 100.67651367 C98.91210439 120.31822458 92.22318985 141.32927913 79.31689453 156.44604492 C78.65689453 156.44604492 77.99689453 156.44604492 77.31689453 156.44604492 C77.06939453 157.00291992 76.82189453 157.55979492 76.56689453 158.13354492 C73.63605586 163.55559646 69.30574986 167.87028901 64.31689453 171.44604492 C63.65689453 171.44604492 62.99689453 171.44604492 62.31689453 171.44604492 C61.98689453 172.43604492 61.65689453 173.42604492 61.31689453 174.44604492 C45.66777825 187.71619816 24.65239978 193.01052994 4.63378906 192.89208984 C2.45037333 192.88357798 0.26958565 192.91246956 -1.91357422 192.9440918 C-21.55528512 193.04125478 -42.56633968 186.35234024 -57.68310547 173.44604492 C-57.68310547 172.78604492 -57.68310547 172.12604492 -57.68310547 171.44604492 C-58.23998047 171.19854492 -58.79685547 170.95104492 -59.37060547 170.69604492 C-64.79265701 167.76520625 -69.10734955 163.43490025 -72.68310547 158.44604492 C-72.68310547 157.78604492 -72.68310547 157.12604492 -72.68310547 156.44604492 C-73.67310547 156.11604492 -74.66310547 155.78604492 -75.68310547 155.44604492 C-88.9532587 139.79692864 -94.24759049 118.78155017 -94.12915039 98.76293945 C-94.12063852 96.57952372 -94.14953011 94.39873604 -94.18115234 92.21557617 C-94.27831533 72.57386527 -87.58940079 51.56281071 -74.68310547 36.44604492 C-74.02310547 36.44604492 -73.36310547 36.44604492 -72.68310547 36.44604492 C-72.43560547 35.88916992 -72.18810547 35.33229492 -71.93310547 34.75854492 C-69.0022668 29.33649338 -64.6719608 25.02180084 -59.68310547 21.44604492 C-59.02310547 21.44604492 -58.36310547 21.44604492 -57.68310547 21.44604492 C-57.18810547 19.96104492 -57.18810547 19.96104492 -56.68310547 18.44604492 C-41.03398919 5.17589169 -20.01861072 -0.11844009 0 0 Z " fill="#55AAFF" transform="translate(93.68310546875,-0.446044921875)"/>
<path d="M0 0 C48.42657343 0 48.42657343 0 56.8359375 7.67578125 C61.9807395 13.33506345 63.51698749 18.82799189 63.30078125 26.41796875 C62.33310371 34.72491488 58.10921813 39.36930822 51.828125 44.56640625 C51.22484375 45.03949219 50.6215625 45.51257813 50 46 C51.19625 46.495 52.3925 46.99 53.625 47.5 C58.49009092 49.91094203 61.25980148 53.38243364 64 58 C66.32272181 64.96816542 66.21258256 74.44389082 63.09765625 81.1953125 C58.83037909 88.21126285 53.93004974 92.62501048 46 95 C30.8717197 97.52138005 15.33695609 96 0 96 C0 64.32 0 32.64 0 0 Z " fill="#F9FCFF" transform="translate(109,48)"/>
<path d="M0 0 C8.64595987 5.70786377 13.93010047 11.6262389 17.20703125 21.45703125 C17.33484911 24.13098089 17.25094996 26.77798982 17.20703125 29.45703125 C13.24703125 29.45703125 9.28703125 29.45703125 5.20703125 29.45703125 C4.62953125 27.58015625 4.05203125 25.70328125 3.45703125 23.76953125 C1.16571096 16.93576898 -1.19895556 12.75403784 -7.79296875 9.45703125 C-13.9335096 7.56358825 -20.52293947 7.74997295 -26.60546875 9.64453125 C-34.56051453 14.16798865 -38.55151544 19.38574384 -41.3371582 28.17382812 C-42.35190819 33.25681789 -42.09997403 38.54604979 -42.14306641 43.71655273 C-42.15948564 45.1525916 -42.18658634 46.58855364 -42.22509766 48.02416992 C-42.54864581 60.18536042 -41.12577602 70.88911164 -32.79296875 80.45703125 C-26.84388521 85.17573614 -20.07551046 85.22462458 -12.79296875 84.45703125 C-6.82083705 83.43584232 -2.7466743 81.40891122 0.98828125 76.57421875 C3.19783588 72.73582577 4.15023752 68.74291695 5.20703125 64.45703125 C9.16703125 64.45703125 13.12703125 64.45703125 17.20703125 64.45703125 C16.3702246 75.3355177 13.30723349 81.99327347 5.20703125 89.45703125 C2.64003637 91.1369029 0.06358703 92.35660158 -2.79296875 93.45703125 C-3.84677734 93.98876953 -3.84677734 93.98876953 -4.921875 94.53125 C-9.12538583 95.88666778 -13.15264462 95.82553669 -17.54296875 95.83203125 C-18.39890625 95.85652344 -19.25484375 95.88101563 -20.13671875 95.90625 C-29.60432044 95.94928455 -38.03938768 92.11432908 -44.79296875 85.45703125 C-54.42673545 73.02387342 -55.97343633 60.96939821 -56.04296875 45.70703125 C-56.06359375 44.59070313 -56.08421875 43.474375 -56.10546875 42.32421875 C-56.16554176 29.43855889 -53.07586618 16.80217687 -44.10546875 7.14453125 C-33.09648842 -3.19470123 -13.85594141 -6.86730546 0 0 Z " fill="#FAFCFF" transform="translate(73.79296875,49.54296875)"/>
<path d="M0 0 C3.980625 -0.04125 7.96125 -0.0825 12.0625 -0.125 C13.92467163 -0.15231201 13.92467163 -0.15231201 15.82446289 -0.18017578 C24.21291922 -0.22217564 30.61551835 -0.01965413 37 6 C40.18411471 10.77617207 40.39165412 15.32101524 40 21 C38.17332699 26.88594638 35.90935508 29.56345144 31 33 C27.14478891 34.87727057 24.09393457 35.23737867 19.82421875 35.1953125 C18.25933716 35.18781982 18.25933716 35.18781982 16.6628418 35.18017578 C15.350979 35.16196777 14.03911621 35.14375977 12.6875 35.125 C8.500625 35.08375 4.31375 35.0425 0 35 C0 23.45 0 11.9 0 0 Z " fill="#58ABFF" transform="translate(122,99)"/>
<path d="M0 0 C6.4659375 -0.12375 6.4659375 -0.12375 13.0625 -0.25 C15.08129272 -0.30462402 15.08129272 -0.30462402 17.14086914 -0.36035156 C23.98764277 -0.42375235 28.5036293 -0.2393882 34 4 C37.1855196 7.59655439 37.52221583 11.00591909 37.3515625 15.65234375 C36.58357183 20.78081479 34.60385862 24.75700957 30.5 27.9375 C26.33945799 29.70573035 22.88183751 30.1217119 18.359375 30.09765625 C17.39483398 30.09515869 16.43029297 30.09266113 15.43652344 30.09008789 C13.61169434 30.07643188 13.61169434 30.07643188 11.75 30.0625 C7.8725 30.041875 3.995 30.02125 0 30 C0 20.1 0 10.2 0 0 Z " fill="#56AAFF" transform="translate(122,59)"/>
</svg>
